<svg width="37" height="37" viewBox="0 0 37 37" fill="none" xmlns="http://www.w3.org/2000/svg">
<rect width="37" height="37" rx="18.5" fill="white"/>
<path d="M18.5017 13.5072C15.7387 13.5072 13.51 15.7364 13.51 18.5C13.51 21.2637 15.7387 23.4928 18.5017 23.4928C21.2647 23.4928 23.4934 21.2637 23.4934 18.5C23.4934 15.7364 21.2647 13.5072 18.5017 13.5072ZM18.5017 21.746C16.7162 21.746 15.2565 20.2903 15.2565 18.5C15.2565 16.7097 16.7118 15.254 18.5017 15.254C20.2916 15.254 21.747 16.7097 21.747 18.5C21.747 20.2903 20.2873 21.746 18.5017 21.746ZM24.8619 13.303C24.8619 13.9504 24.3406 14.4675 23.6976 14.4675C23.0503 14.4675 22.5333 13.9461 22.5333 13.303C22.5333 12.6599 23.0546 12.1384 23.6976 12.1384C24.3406 12.1384 24.8619 12.6599 24.8619 13.303ZM28.168 14.4849C28.0941 12.9249 27.7379 11.5431 26.5953 10.4046C25.4571 9.26616 24.0756 8.90984 22.5159 8.83162C20.9085 8.74037 16.0906 8.74037 14.4832 8.83162C12.9279 8.90549 11.5464 9.26181 10.4038 10.4003C9.26121 11.5388 8.90932 12.9206 8.83112 14.4806C8.73989 16.0884 8.73989 20.9073 8.83112 22.5151C8.90497 24.0751 9.26121 25.4569 10.4038 26.5954C11.5464 27.7339 12.9235 28.0902 14.4832 28.1684C16.0906 28.2597 20.9085 28.2597 22.5159 28.1684C24.0756 28.0946 25.4571 27.7382 26.5953 26.5954C27.7335 25.4569 28.0898 24.0751 28.168 22.5151C28.2592 20.9073 28.2592 16.0927 28.168 14.4849ZM26.0913 24.2402C25.7525 25.0919 25.0965 25.7481 24.2406 26.0914C22.959 26.5998 19.918 26.4824 18.5017 26.4824C17.0854 26.4824 14.04 26.5954 12.7628 26.0914C11.9113 25.7524 11.2553 25.0963 10.9121 24.2402C10.4038 22.9584 10.5211 19.9166 10.5211 18.5C10.5211 17.0834 10.4081 14.0374 10.9121 12.7598C11.2509 11.9081 11.9069 11.252 12.7628 10.9087C14.0444 10.4003 17.0854 10.5176 18.5017 10.5176C19.918 10.5176 22.9634 10.4046 24.2406 10.9087C25.0921 11.2476 25.7481 11.9038 26.0913 12.7598C26.5996 14.0417 26.4823 17.0834 26.4823 18.5C26.4823 19.9166 26.5996 22.9627 26.0913 24.2402Z" fill="#F79719"/>
</svg>
