<svg width="37" height="37" viewBox="0 0 37 37" fill="none" xmlns="http://www.w3.org/2000/svg">
<rect width="37" height="37" rx="18.5" fill="white"/>
<path d="M14.0291 28H10.2973V15.9823H14.0291V28ZM12.1612 14.343C10.9679 14.343 10 13.3546 10 12.1613C10 11.5881 10.2277 11.0383 10.633 10.633C11.0383 10.2277 11.588 10 12.1612 10C12.7344 10 13.2841 10.2277 13.6894 10.633C14.0947 11.0383 14.3224 11.5881 14.3224 12.1613C14.3224 13.3546 13.3541 14.343 12.1612 14.343ZM27.996 28H24.2722V22.1499C24.2722 20.7556 24.2441 18.9677 22.332 18.9677C20.3918 18.9677 20.0945 20.4824 20.0945 22.0494V28H16.3667V15.9823H19.9458V17.6216H19.998C20.4963 16.6774 21.7133 15.681 23.5289 15.681C27.3057 15.681 28 18.1681 28 21.3985V28H27.996Z" fill="#FF6600"/>
</svg>
