<svg width="37" height="37" viewBox="0 0 37 37" fill="none" xmlns="http://www.w3.org/2000/svg">
<rect width="37" height="37" rx="18.5" fill="white"/>
<path d="M25.8547 11.0516C23.8906 9.08281 21.275 8 18.4953 8C12.7578 8 8.08906 12.6687 8.08906 18.4062C8.08906 20.2391 8.56719 22.0297 9.47656 23.6094L8 29L13.5172 27.5516C15.0359 28.3813 16.7469 28.8172 18.4906 28.8172H18.4953C24.2281 28.8172 29 24.1484 29 18.4109C29 15.6313 27.8187 13.0203 25.8547 11.0516V11.0516ZM18.4953 27.0641C16.9391 27.0641 15.4156 26.6469 14.0891 25.8594L13.775 25.6719L10.5031 26.5297L11.375 23.3375L11.1687 23.0094C10.3016 21.6313 9.84688 20.0422 9.84688 18.4062C9.84688 13.6391 13.7281 9.75781 18.5 9.75781C20.8109 9.75781 22.9812 10.6578 24.6125 12.2937C26.2437 13.9297 27.2469 16.1 27.2422 18.4109C27.2422 23.1828 23.2625 27.0641 18.4953 27.0641V27.0641ZM23.2391 20.5859C22.9813 20.4547 21.7016 19.8266 21.4625 19.7422C21.2234 19.6531 21.05 19.6109 20.8766 19.8734C20.7031 20.1359 20.2063 20.7172 20.0516 20.8953C19.9016 21.0688 19.7469 21.0922 19.4891 20.9609C17.9609 20.1969 16.9578 19.5969 15.95 17.8672C15.6828 17.4078 16.2172 17.4406 16.7141 16.4469C16.7984 16.2734 16.7562 16.1234 16.6906 15.9922C16.625 15.8609 16.1047 14.5813 15.8891 14.0609C15.6781 13.5547 15.4625 13.625 15.3031 13.6156C15.1531 13.6063 14.9797 13.6063 14.8062 13.6063C14.6328 13.6063 14.3516 13.6719 14.1125 13.9297C13.8734 14.1922 13.2031 14.8203 13.2031 16.1C13.2031 17.3797 14.1359 18.6172 14.2625 18.7906C14.3938 18.9641 16.0953 21.5891 18.7062 22.7188C20.3562 23.4312 21.0031 23.4922 21.8281 23.3703C22.3297 23.2953 23.3656 22.7422 23.5812 22.1328C23.7969 21.5234 23.7969 21.0031 23.7313 20.8953C23.6703 20.7781 23.4969 20.7125 23.2391 20.5859Z" fill="#FF6600"/>
</svg>
