<svg width="38" height="37" viewBox="0 0 38 37" fill="none" xmlns="http://www.w3.org/2000/svg">
<circle cx="19.4365" cy="18.5" r="18.5" fill="white"/>
<path d="M31.1287 12.944C30.848 11.8773 30.0211 11.0373 28.9711 10.7522C27.0679 10.2341 19.4365 10.2341 19.4365 10.2341C19.4365 10.2341 11.8051 10.2341 9.90193 10.7522C8.85196 11.0373 8.02501 11.8773 7.74434 12.944C7.23439 14.8774 7.23439 18.9112 7.23439 18.9112C7.23439 18.9112 7.23439 22.945 7.74434 24.8784C8.02501 25.9451 8.85196 26.7502 9.90193 27.0352C11.8051 27.5533 19.4365 27.5533 19.4365 27.5533C19.4365 27.5533 27.0679 27.5533 28.9711 27.0352C30.0211 26.7502 30.848 25.9451 31.1287 24.8784C31.6386 22.945 31.6386 18.9112 31.6386 18.9112C31.6386 18.9112 31.6386 14.8774 31.1287 12.944ZM16.9406 22.5736V15.2488L23.319 18.9113L16.9406 22.5736Z" fill="#F8A714"/>
</svg>
